<svg viewBox="0 0 16 16" xmlns="http://www.w3.org/2000/svg">
<path d="M7.99988 1.43335C9.85908 1.43335 11.3668 2.94041 11.3671 4.79956C11.3671 6.33392 10.3394 7.62979 8.93445 8.03491L9.01257 9.01245C10.2049 9.15775 11.185 9.57332 11.911 10.2888C12.8325 11.1971 13.3397 12.5853 13.3397 14.5066C13.3397 14.5084 13.3398 14.5094 13.3397 14.5095L13.3358 14.5134C13.3356 14.5135 13.3342 14.5134 13.3329 14.5134C13.3294 14.5132 13.327 14.5102 13.327 14.5066C13.327 12.5877 12.8201 11.2035 11.9022 10.2986V10.2976C10.984 9.39279 9.65231 8.96655 7.99988 8.96655C6.34741 8.96657 5.01571 9.39272 4.09753 10.2976C3.17937 11.2025 2.67371 12.5875 2.67371 14.5066C2.6737 14.5085 2.67277 14.5094 2.67273 14.5095L2.67175 14.5115C2.6708 14.5124 2.66926 14.5123 2.66882 14.5125C2.66856 14.5125 2.66816 14.5134 2.66687 14.5134C2.66501 14.5134 2.66404 14.5125 2.66394 14.5125L2.66199 14.5115C2.66119 14.5107 2.66027 14.51 2.66003 14.5095C2.65999 14.5094 2.66004 14.5085 2.66003 14.5066C2.66003 12.5854 3.16724 11.1971 4.08875 10.2888C4.81481 9.57327 5.79483 9.15775 6.98718 9.01245L7.06531 8.03491C5.66031 7.62977 4.63367 6.33392 4.63367 4.79956C4.63391 2.94046 6.14074 1.43342 7.99988 1.43335ZM7.99988 1.44702C6.1481 1.44709 4.64661 2.94782 4.64636 4.79956C4.64636 6.65151 6.14795 8.153 7.99988 8.15308C9.85187 8.15308 11.3534 6.65155 11.3534 4.79956C11.3531 2.94778 9.85172 1.44702 7.99988 1.44702Z" />
</svg>
